<?xml version="1.0" encoding="UTF-8"?>
<svg id="Warstwa_1" xmlns="http://www.w3.org/2000/svg" version="1.1" viewBox="0 0 102.44 50.66">
  <!-- Generator: Adobe Illustrator 29.3.1, SVG Export Plug-In . SVG Version: 2.1.0 Build 151)  -->
  <defs>
    <style>
      .st0 {
        fill: #fafaf8;
      }

      .st1 {
        fill: #d92f2b;
      }

      .st2 {
        fill: #222023;
      }
    </style>
  </defs>
  <g id="piesc">
    <g>
      <path class="st1" d="M12.82,49.56c-.69,0-1.39-.05-2.09-.15-1.71-.23-3.1-.71-4.78-1.42l-.47-.21c-1.38-.61-3.94-1.75-3.49-4.07l.23-1.17,1.15.33c.95.27,4.86,1.66,8.32,2.89,1.69.6,3.17,1.13,3.92,1.39l.74.25v1.09l-.16.27c-.13.22-.48.8-3.38.8Z"/>
      <path class="st2" d="M3.08,43.92c1.38.39,9.97,3.5,12.18,4.26h0s-.93.28-2.44.28c-.57,0-1.23-.04-1.94-.14-1.66-.22-3-.71-4.5-1.34-1.22-.57-3.62-1.41-3.3-3.06M1.38,41.16l-.46,2.35c-.62,3.18,2.7,4.66,4.12,5.29.15.07.28.13.41.18l.04.02.04.02c1.76.74,3.23,1.25,5.06,1.49.74.1,1.49.15,2.23.15,3.5,0,4.01-.82,4.31-1.31l.33-.53v-.63s0-1.57,0-1.57l-1.48-.52c-.75-.26-2.22-.78-3.9-1.38-4.2-1.5-7.49-2.66-8.4-2.92l-2.3-.65h0Z"/>
    </g>
    <g>
      <path class="st1" d="M18.34,47.67c-.59,0-1.09-.08-1.57-.24l-.21-.08c-5.72-2.1-8.89-3.1-10.55-3.56l-.32-.09c-.96-.28-2.04-.59-2.96-1.23-1.46-.97-2-2.55-1.36-4.04.13-.42.33-1.16.56-1.98.57-2.06,1.02-3.69,1.31-4.36l.05-.12.51-.68.73.12c2.72.63,9.04,2.68,13.65,4.19,2.43.79,4.53,1.47,5.14,1.63.82.28,1.18.88,1.06,1.67v.06s-.03.06-.03.06c-.22.81-.58,1.89-.94,2.93-.31.92-.64,1.87-.83,2.57-.38,1.77-2.03,3.15-3.83,3.15-.12,0-.26.01-.4.01Z"/>
      <path class="st2" d="M4.27,32.47c4.15.96,16.95,5.34,18.76,5.81.23.08.29.17.25.44-.4,1.48-1.34,3.97-1.77,5.49-.28,1.29-1.45,2.35-2.77,2.35,0,0-.01,0-.02,0-.13,0-.26.01-.38.01-.44,0-.83-.05-1.22-.18-1.01-.37-6.95-2.57-10.82-3.66-1.02-.3-2.09-.57-2.95-1.17-.98-.65-1.44-1.69-.96-2.75.37-1.18,1.42-5.28,1.85-6.3l.03-.04M3.37,30.01l-.86,1.15-.03.04-.16.22-.1.25c-.31.73-.76,2.32-1.35,4.49-.21.77-.41,1.5-.54,1.91-.8,1.95-.09,4.07,1.79,5.33,1.06.74,2.23,1.07,3.26,1.37l.31.09c1.66.47,4.8,1.46,10.49,3.54l.2.07h.02s.02.02.02.02c.6.2,1.21.3,1.92.3.15,0,.3,0,.46-.01,2.28-.04,4.33-1.75,4.85-4.01.19-.67.5-1.58.8-2.47.36-1.06.73-2.15.96-2.99l.03-.12.02-.13c.19-1.3-.48-2.41-1.7-2.84l-.08-.03-.09-.02c-.58-.15-2.77-.86-5.09-1.62-4.63-1.5-10.96-3.57-13.73-4.21l-1.4-.32h0Z"/>
    </g>
    <g>
      <path class="st1" d="M24.12,36.51c-.34-.01-.64-.02-.96-.03-2.08-.05-4.43-.11-5.3-1.74-.18-.33-.27-.69-.29-1.08-.51.89-1.02,1.17-2.09,1.27h-.16c-1.38,0-3.67-.97-6.76-2.34-.69-.31-1.34-.6-1.89-.83-.89-.42-1.92-1.03-2.41-2.33-1.25-3.05-.69-10.24-.24-14.25.17-1.22.5-2.32.85-3.47.18-.59.36-1.21.53-1.86.09-.31.16-.57.24-.83.31-1.13.63-2.29,1.42-3.28.1-.15.24-.36.39-.59.51-.78,1.09-1.66,1.81-2.31,1.51-1.45,4.44-1.76,6.63-1.76,7.7,0,19.08,3.64,20.41,10.47.49,2.08-.57,4.01-1.91,5.42.19-.07.38-.14.59-.2l.18-.06c.44-.16,1-.36,1.59-.36.72,0,1.32.29,1.74.84l.04.05.03.06c.79,1.34.41,3.07.14,4.33l-.07.34c-.48,2.07-1.03,3.31-2.17,4.92-2.34,4.21-7.92,8.67-12,9.57l-.12.03h-.21ZM19.98,28.09c-.28.21-.62.58-.82,1.08-.2.47-.35.98-.51,1.52.76-1.07,1.2-2.04,1.33-2.6ZM28.31,20.49c.37.13.84.46.95,1.27,0,.05,0,.1.01.15.47-1.02,1-1.9,1.66-2.64h-.09s-.1.01-.1.01c-.36,0-.69-.14-.93-.38-.15-.15-.24-.32-.29-.48-.11.09-.22.18-.34.26-1.39,1.03-3.26,1.57-5.41,1.57-3.62,0-7.45-1.56-9.46-3.81,2.84,3.68,8.85,4.1,11.46,4.1,1.01,0,1.72-.06,2.06-.1l.25-.03.24.08ZM11.74,11.96c.65.75,1.08,1.6,1.45,2.42,0-.04-.02-.09-.03-.13-.04-.16-.08-.36-.15-.6-.18-.63-.63-1.35-1.28-1.69Z"/>
      <path class="st2" d="M15.89,2.2c7.27,0,18.15,3.52,19.33,9.58.76,3.22-3.18,6.06-4.43,6.39-.02,0-.03,0-.05,0-.26,0-.19-.25-.19-.58.05-.6.14-1.75,0-2.35-.09-.32-.17-.45-.25-.45-.34,0-.68,2.35-1.74,2.96-1.27.96-2.99,1.38-4.8,1.38-3.35,0-7.02-1.45-8.8-3.64-.69-.9-.56-.89-.88-2.12-.33-1.19-1.22-2.32-2.46-2.63-.31-.07-.63-.1-.92-.1-1.06,0-1.74.45-.37,1.47,1.17.94,1.72,2.43,2.3,3.71,2.56,4.9,9.21,5.8,13.13,5.8.9,0,1.65-.05,2.18-.1.14.05.2.16.23.38.05.52.01.98.1,1.6.07.49.33,1.57.76,1.57.08,0,.17-.04.27-.14,1.2-3.7,2.43-5.98,6-7.09.43-.15.96-.37,1.44-.37.33,0,.63.1.86.41.63,1.07.19,2.69-.06,3.89-.46,1.99-.97,3.08-2.03,4.56-2.13,3.89-7.47,8.24-11.3,9.08h-.09c-2.74-.13-7.32.28-4.64-4.01.75-1.02,2.36-3.64,1.24-4.51-.11-.07-.23-.1-.37-.1-.71,0-1.75.81-2.22,1.96-.55,1.31-.78,2.85-1.37,4.1-.43.85-.61.92-1.38.99-.02,0-.04,0-.06,0-1.63,0-5.85-2.1-8.22-3.09-.81-.38-1.48-.85-1.81-1.71-1.27-3.1-.44-11.32-.17-13.73.24-1.71.86-3.28,1.35-5.18.4-1.32.64-2.68,1.45-3.7.61-.88,1.26-2.03,2.07-2.76,1.04-1,3.23-1.47,5.9-1.47M15.89,0c-3.46,0-5.95.69-7.4,2.06-.81.74-1.43,1.67-1.96,2.5-.13.2-.26.39-.38.57-.89,1.15-1.25,2.45-1.56,3.6-.07.25-.14.51-.22.76v.04s-.02.04-.02.04c-.16.63-.34,1.23-.52,1.82-.34,1.14-.7,2.33-.88,3.6v.03s0,.03,0,.03c-.56,5.02-.96,11.67.32,14.81.63,1.64,1.96,2.42,2.91,2.87l.04.02.04.02c.54.23,1.18.51,1.87.82,3.31,1.48,5.6,2.44,7.2,2.44h.12s.07,0,.07,0h.07c.61-.06,1.12-.18,1.54-.4,1.29,1.82,3.89,1.89,6.01,1.94.31,0,.6.01.88.03h.05s.05,0,.05,0h.33l.23-.05c4.39-.96,10.17-5.55,12.69-10.05,1.22-1.72,1.81-3.06,2.31-5.24l.08-.38c.31-1.44.74-3.41-.27-5.12l-.07-.11-.08-.1c-.59-.78-1.45-1.23-2.43-1.27.54-1.19.78-2.54.45-3.96C35.89,3.93,23.95,0,15.89,0h0Z"/>
    </g>
  </g>
  <g>
    <path class="st0" d="M43.28,21.1c0-.58.08-1.27.24-2.07l.3-1.53h6.3l-.33,1.53c-.06.24-.09.45-.09.63,0,.4.2.6.6.6.18,0,.33-.05.46-.15.13-.1.21-.23.26-.39l.33-1.5c.02-.06.03-.15.03-.27,0-.26-.16-.5-.46-.73-.31-.23-1.03-.65-2.15-1.25-1.28-.72-2.19-1.41-2.72-2.08-.53-.67-.79-1.46-.79-2.35,0-.48.06-1.02.18-1.62l.3-1.5c.42-1.94,1.38-3.43,2.9-4.47,1.51-1.04,3.33-1.56,5.44-1.56,1.82,0,3.21.4,4.19,1.2.97.8,1.46,1.96,1.46,3.48,0,.7-.08,1.37-.24,2.01l-.3,1.41h-6l.3-1.41c.04-.28.06-.45.06-.51,0-.5-.22-.75-.66-.75-.36,0-.58.18-.66.54l-.3,1.38c-.04.3.04.57.25.81.21.24.57.5,1.1.78,1.74.82,2.96,1.62,3.67,2.42.71.79,1.07,1.72,1.07,2.8,0,.42-.07,1-.21,1.74l-.36,1.71c-.36,1.74-1.3,3.12-2.84,4.14-1.53,1.02-3.33,1.53-5.41,1.53-3.94,0-5.91-1.52-5.91-4.56Z"/>
    <path class="st0" d="M65.3,25.18h-6.42l4.74-22.32h6.42l-4.74,22.32Z"/>
    <path class="st0" d="M70.81,24.32c-.97-.89-1.46-2.21-1.46-3.94,0-.82.1-1.67.3-2.55l1.59-7.56c.56-2.58,1.58-4.54,3.06-5.88,1.48-1.34,3.37-2.01,5.67-2.01,1.9,0,3.33.4,4.28,1.2.95.8,1.42,2.04,1.42,3.72,0,.84-.1,1.73-.3,2.67l-.33,1.53h-6.36l.57-2.64.03-.21c0-.18-.04-.32-.13-.42-.09-.1-.21-.15-.38-.15-.18,0-.34.07-.5.21-.15.14-.25.33-.31.57l-2.19,10.29c-.04.28-.06.46-.06.54,0,.5.22.75.66.75.56,0,.94-.38,1.14-1.14l.3-1.32h-.9l.99-4.68h6.78l-.87,4.08c-.42,2-1,3.6-1.74,4.81s-1.68,2.09-2.82,2.64c-1.14.55-2.54.83-4.2.83-1.86,0-3.28-.45-4.25-1.33Z"/>
    <path class="st1" d="M48.83,49.18h-6.27l4.74-22.32h7.59l-.51,10.26-.21,1.32h.06l.39-1.32,3.87-10.26h7.59l-4.74,22.32h-6.27l1.68-7.98,1.05-4.05h-.06l-.3.75-3.21,8.46h-3.33l.33-8.46.06-.75h-.09l-.69,4.05-1.68,7.98Z"/>
    <path class="st1" d="M70.52,49.18h-6.27l4.74-22.32h7.59l-.51,10.26-.21,1.32h.06l.39-1.32,3.87-10.26h7.59l-4.74,22.32h-6.27l1.68-7.98,1.05-4.05h-.06l-.3.75-3.21,8.46h-3.33l.33-8.46.06-.75h-.09l-.69,4.05-1.68,7.98Z"/>
    <path class="st1" d="M85.37,49.18l8.46-22.32h8.61l-.99,22.32h-6.48l.3-2.73h-2.46l-.84,2.73h-6.6ZM96.38,35.05l-1.95,6.21h1.44l.69-6.18.24-1.5h-.06l-.36,1.47Z"/>
  </g>
</svg>